<svg xmlns="http://www.w3.org/2000/svg" width="50" height="39" fill="none" viewBox="0 0 50 39"><rect width="49.4" height="39" fill="#B3845A" rx="1"/><path stroke="#382A1C" stroke-width="3" d="M41.6003 32.9336V8.93359C41.6003 7.82902 40.7049 6.93359 39.6003 6.93359H20.7084V6.93359C14.3672 6.93359 9.18098 11.9864 9.01566 18.3253L8.73485 29.0935C8.69766 30.5194 9.84347 31.6955 11.2699 31.6955H15.8581C17.2256 31.6955 18.3343 30.5869 18.3343 29.2193V29.2193C18.3343 27.8517 19.4429 26.7431 20.8105 26.7431H20.9268C22.3586 26.7431 23.5193 27.9038 23.5193 29.3356V32.9336"/><path stroke="#382A1C" stroke-width="3" d="M34.6672 32.9338V23.8338C34.6672 21.6799 32.9211 19.9338 30.7672 19.9338V19.9338C28.6133 19.9338 26.8672 18.1877 26.8672 16.0338V12.1338"/><circle cx="34.667" cy="13.867" r="2.167" fill="#593F27"/></svg>